<svg width="62" height="62" viewBox="0 0 62 62" fill="none" xmlns="http://www.w3.org/2000/svg">
<path d="M38.869 58.3376C39.8925 58.3376 40.9021 58.3376 41.8978 58.3376C44.1106 58.3376 46.3234 58.3376 48.5362 58.3376C49.2692 58.3376 49.8224 58.6695 50.1543 59.3195C50.4724 59.9418 50.4863 60.6334 50.016 61.1312C49.6703 61.5046 49.1171 61.7121 48.6469 61.9334C48.4809 62.0163 48.232 61.9472 48.0245 61.9472C32.8391 61.9472 17.64 61.9472 2.45459 61.9472C2.24714 61.9472 2.03969 61.961 1.83224 61.9334C0.836478 61.8366 0.117317 61.0482 0.131147 60.094C0.144977 59.112 0.864138 58.3376 1.88756 58.3237C4.33547 58.2961 6.76956 58.3099 9.21747 58.3099C10.0196 58.3099 10.8079 58.3099 11.6516 58.1716C11.0569 57.7567 10.4622 57.3556 9.88131 56.9269C3.53333 52.1002 0.172637 45.7384 0.131147 37.7032C0.117317 34.7712 0.131147 31.8531 0.131147 28.9211C0.131147 27.22 0.753498 26.5977 2.48225 26.5977C17.6676 26.5977 32.8668 26.5977 48.0522 26.5977C49.7394 26.5977 50.3618 27.22 50.3618 28.8796C50.3618 32.1573 50.4171 35.4212 50.3341 38.6989C50.1682 44.9916 47.6926 50.3161 43.2255 54.7003C41.8978 56.028 40.3627 57.1067 38.869 58.3376Z" fill="#55140F"/>
<path d="M17.792 6.26506C17.7228 8.42255 16.8654 10.0268 15.4547 11.3683C14.9015 11.8939 14.3345 12.4056 13.8504 12.9726C13.0898 13.8716 13.0206 14.9227 13.56 15.9461C13.9196 16.6238 14.4036 17.2599 14.9015 17.8546C15.6483 18.7397 15.6898 19.777 14.943 20.5238C14.2238 21.243 13.0759 21.1877 12.2738 20.4132C10.9184 19.0717 9.96417 17.4812 9.64608 15.5727C9.31416 13.5397 9.99183 11.7971 11.3057 10.2896C11.8036 9.72257 12.3983 9.23852 12.9515 8.71298C14.3068 7.39912 14.4728 6.00229 13.4217 4.4395C13.1036 3.96928 12.7025 3.54055 12.3429 3.09799C11.7068 2.33733 11.7068 1.24476 12.3568 0.580922C13.0206 -0.0967496 14.0717 -0.22122 14.8047 0.442621C16.6026 2.03307 17.6537 4.0246 17.792 6.26506Z" fill="#55140F"/>
<path d="M29.3655 6.30765C29.3241 8.42364 28.4666 10.0141 27.0559 11.3694C26.5166 11.895 25.9357 12.3929 25.4378 12.9737C24.6772 13.8727 24.5804 14.9099 25.1197 15.9333C25.4655 16.5972 25.9219 17.2195 26.4059 17.7866C27.2357 18.7547 27.3049 19.7781 26.5027 20.5526C25.7421 21.2856 24.608 21.1888 23.7506 20.3036C22.3122 18.8515 21.3441 17.1366 21.1782 15.0897C20.9984 12.9184 21.9388 11.162 23.474 9.68218C23.9303 9.23961 24.4421 8.82471 24.8708 8.35449C25.8389 7.31724 25.9495 6.12786 25.2857 4.91082C24.9538 4.28847 24.4835 3.73527 24.0272 3.19589C23.2942 2.35226 23.2665 1.2182 23.9857 0.526699C24.7463 -0.206292 25.8112 -0.178632 26.641 0.637339C28.2453 2.24162 29.2687 4.12251 29.3655 6.30765Z" fill="#55140F"/>
<path d="M32.7422 14.1617C32.7698 12.6543 33.6273 11.0638 35.0241 9.70846C35.5359 9.21058 36.0752 8.74036 36.5593 8.21481C37.3891 7.30203 37.5135 6.20946 36.9742 5.13072C36.6423 4.46688 36.172 3.84453 35.688 3.2775C34.872 2.33705 34.8029 1.24448 35.605 0.511491C36.3933 -0.2215 37.4582 -0.15235 38.3019 0.705112C39.7955 2.22641 40.8328 3.99666 40.9434 6.16797C41.054 8.27013 40.1136 9.94357 38.6476 11.3681C38.1221 11.8798 37.555 12.3638 37.0848 12.917C36.2688 13.8575 36.1997 14.9362 36.7667 16.0011C37.1125 16.6373 37.5689 17.232 38.0391 17.799C38.8412 18.7395 38.8965 19.832 38.0944 20.565C37.3338 21.2704 36.2135 21.1597 35.3837 20.3161C33.6826 18.6288 32.7422 16.5958 32.7422 14.1617Z" fill="#55140F"/>
<path d="M52.0078 48.3492C52.3951 47.1598 52.7131 46.081 53.1004 45.03C53.1695 44.8363 53.46 44.6289 53.6812 44.5736C56.309 43.9236 57.8856 42.0703 58.1207 39.3458C58.3281 37.05 56.8898 34.8372 54.511 33.8553C54.1238 33.6893 53.9993 33.4957 53.9993 33.0947C54.027 32.0851 54.0132 31.0755 54.0132 29.9414C56.9175 30.4669 59.1164 31.9329 60.5271 34.4223C62.4218 37.7692 62.2974 41.1576 60.1537 44.3385C58.2452 47.146 55.4653 48.4045 52.0078 48.3492Z" fill="#55140F"/>
</svg>
