<svg width="62" height="62" viewBox="0 0 62 62" fill="none" xmlns="http://www.w3.org/2000/svg">
<path d="M14.6666 28.8141C13.8606 28.0395 13.0298 27.2287 12.1618 26.3936C13.7366 24.8566 15.3114 23.3317 16.8614 21.8311C15.9314 20.9234 15.0882 20.1004 14.245 19.2654C12.7074 20.7661 11.1574 22.2788 9.65696 23.7553C6.19736 20.3909 2.81216 17.087 -0.523438 13.8314C4.08936 9.3294 8.80136 4.73053 13.4762 0.167969C18.5478 5.1178 23.669 10.116 28.7654 15.078C24.0782 19.6405 19.3786 24.2273 14.6666 28.8141ZM12.9182 11.2537C11.7526 11.2537 10.7978 12.1855 10.7978 13.3232C10.7854 14.4971 11.7526 15.4411 12.943 15.4289C14.1086 15.4168 15.051 14.4971 15.0634 13.3474C15.0758 12.1855 14.1086 11.2537 12.9182 11.2537Z" fill="#55140F"/>
<path d="M48.5287 61.784C46.9787 60.2713 45.3419 58.6738 43.7051 57.0763C45.2303 55.5877 46.7927 54.0749 48.3055 52.5984C47.3879 51.7028 46.5447 50.8678 45.6767 50.0206C44.1887 51.4971 42.6387 53.022 41.1383 54.4985C40.2083 53.5908 39.3527 52.7557 38.4723 51.8844C39.9603 50.4321 41.5227 48.9193 43.0479 47.4428C42.1551 46.5594 41.2995 45.7243 40.4191 44.8651C38.9187 46.3415 37.3563 47.8664 35.8435 49.3429C34.9631 48.4715 34.1075 47.6365 33.2891 46.8377C37.9019 42.3357 42.6015 37.7489 47.2391 33.2227C52.2983 38.1604 57.4319 43.1707 62.5159 48.1327C57.9031 52.6468 53.1911 57.2457 48.5287 61.784Z" fill="#55140F"/>
<path d="M6.76562 41.9843C17.7396 31.2738 28.7508 20.5269 39.7248 9.81641C41.3988 11.4502 43.11 13.1203 44.7592 14.7299C33.7976 25.4162 22.774 36.1752 11.8 46.8978C10.2004 45.3366 8.47682 43.6544 6.76562 41.9843Z" fill="#55140F"/>
<path d="M47.5998 17.4531C49.3234 19.1353 51.047 20.8176 52.7334 22.4635C41.747 33.1861 30.7358 43.9329 19.7494 54.6555C18.063 52.9854 16.3394 51.2911 14.6406 49.6089C25.5774 38.9468 36.5886 28.2 47.5998 17.4531Z" fill="#55140F"/>
<path d="M3.96628 44.6445C8.31868 48.8924 12.6463 53.1161 17.0979 57.4608C15.7091 58.6832 14.4071 60.0991 12.8571 61.152C10.8607 62.4954 8.09548 62.2049 6.30988 60.5832C4.36308 58.8163 2.45348 56.9889 0.667884 55.0767C-1.29132 52.983 -1.19212 49.7759 0.791884 47.6943C1.80868 46.6414 2.91228 45.6611 3.96628 44.6445Z" fill="#55140F"/>
<path d="M55.0504 19.3637C50.9832 15.3941 46.978 11.4851 42.8984 7.51552C49.4332 5.03455 55.9928 2.55358 62.7384 0C60.1344 6.55944 57.5924 12.9615 55.0504 19.3637Z" fill="#55140F"/>
</svg>
