<svg width="62" height="58" viewBox="0 0 62 58" fill="none" xmlns="http://www.w3.org/2000/svg">
<path d="M53.8797 53.2185C53.8797 53.9321 53.8918 54.549 53.8797 55.1779C53.8556 56.3995 52.9847 57.2945 51.8478 57.2824C50.7351 57.2703 49.8884 56.3874 49.8521 55.2021C49.84 54.5852 49.8521 53.9563 49.8521 53.279C37.2854 53.279 24.7671 53.279 12.1521 53.279C12.1521 53.8716 12.1521 54.4764 12.1521 55.069C12.14 56.3632 11.3296 57.2582 10.1685 57.2824C8.9953 57.3066 8.13656 56.3874 8.12446 55.069C8.11237 54.4885 8.12446 53.9079 8.12446 53.2306C7.45924 53.2306 6.84239 53.2427 6.22555 53.2306C3.7098 53.1822 1.79879 52.0695 0.686053 49.8077C0.311109 49.0578 0.0692093 48.1507 0.0692093 47.3162C0.0208294 41.8371 0.0208294 36.346 0.0571144 30.867C0.0813043 27.7586 2.64544 25.1582 5.75385 24.9888C6.08041 24.9768 6.39488 24.9647 6.72144 24.9647C13.2769 24.9647 19.8203 24.9526 26.3758 24.9768C26.8475 24.9768 27.0652 24.8316 27.3071 24.4204C30.0526 19.5945 34.177 16.9336 39.7528 16.9336C45.3528 16.9336 49.5014 19.5945 52.2348 24.4446C52.4525 24.8316 52.6702 24.9888 53.1178 24.9768C54.1458 24.9526 55.1739 24.9405 56.202 24.9888C59.4192 25.1461 61.9592 27.7586 61.9713 30.9759C61.9955 36.3823 61.9955 41.7767 61.9713 47.1831C61.9592 50.4851 59.3467 53.1097 56.0447 53.2064C55.3432 53.2427 54.6538 53.2185 53.8797 53.2185ZM39.7407 41.0993C45.2923 41.0993 49.8279 36.5758 49.84 31.0363C49.8521 25.4847 45.256 20.8886 39.7165 20.9128C34.1649 20.937 29.6535 25.4726 29.6535 31.0242C29.6656 36.5879 34.1891 41.1114 39.7407 41.0993ZM14.8614 41.1114C13.3737 41.1114 11.886 41.1114 10.3862 41.1114C9.03158 41.1114 8.13656 41.9097 8.12446 43.095C8.11237 44.2924 8.9832 45.1391 10.3137 45.1512C13.3374 45.1633 16.3611 45.1754 19.3728 45.1391C19.8324 45.1391 20.3404 44.9697 20.7274 44.7278C21.4652 44.2682 21.7192 43.3732 21.4652 42.5507C21.1991 41.692 20.4734 41.1356 19.5179 41.1235C17.9698 41.0993 16.4095 41.1114 14.8614 41.1114ZM14.8493 37.0838C16.3853 37.0838 17.9093 37.108 19.4454 37.0838C20.679 37.0596 21.562 36.2009 21.562 35.064C21.562 33.9512 20.7274 33.0562 19.5179 33.0441C16.3974 33.0078 13.2769 33.0199 10.1564 33.0441C9.27348 33.0441 8.60826 33.4795 8.2696 34.3141C7.71323 35.6687 8.70502 37.0475 10.2653 37.0717C11.7892 37.108 13.3253 37.0838 14.8493 37.0838Z" fill="#55140F"/>
<path d="M40.1766 0.726562C47.99 0.871702 55.1018 3.71402 61.0163 9.45913C61.9234 10.3421 61.996 11.5878 61.1856 12.4224C60.3752 13.269 59.1415 13.2811 58.2223 12.374C55.1744 9.38656 51.6427 7.22156 47.5546 5.96369C43.6842 4.77838 39.7291 4.50019 35.7257 5.10494C30.2104 5.9395 25.4812 8.3343 21.4657 12.1926C20.873 12.7611 20.232 13.1844 19.3612 12.9909C18.5871 12.8215 18.0549 12.3498 17.8251 11.5999C17.5832 10.7896 17.7888 10.0639 18.4178 9.50751C19.5426 8.50363 20.6553 7.46346 21.8648 6.56843C27.1866 2.68595 33.1857 0.799132 40.1766 0.726562Z" fill="#55140F"/>
<path d="M56.057 16.4743C55.9965 17.5629 55.6337 18.1918 54.8959 18.5426C54.1339 18.9054 53.3961 18.8207 52.743 18.2886C52.0052 17.6959 51.3278 17.0307 50.5659 16.4622C47.3728 14.0553 43.7322 12.8579 39.753 12.87C35.1931 12.8821 31.1534 14.394 27.7185 17.4298C27.3919 17.7201 27.0653 18.0346 26.7267 18.3128C25.8558 19.0022 24.6705 18.8933 23.9569 18.0709C23.2554 17.2847 23.2675 16.0873 24.0416 15.3374C27.537 11.9024 31.6977 9.77371 36.572 9.0722C41.2406 8.39488 45.6795 9.15686 49.8885 11.2735C51.9568 12.3137 53.8073 13.6804 55.428 15.3253C55.7667 15.664 55.9239 16.2203 56.057 16.4743Z" fill="#55140F"/>
<path d="M39.7272 24.9649C43.0291 24.9528 45.7747 27.6742 45.7989 30.9882C45.823 34.3022 43.0412 37.0961 39.7393 37.084C36.4615 37.072 33.6918 34.2901 33.6797 31.0124C33.6797 27.7346 36.4252 24.977 39.7272 24.9649Z" fill="#55140F"/>
</svg>
