<svg width="26" height="62" viewBox="0 0 26 62" fill="none" xmlns="http://www.w3.org/2000/svg">
<path d="M13.0144 27.4372C9.46704 27.4372 5.90758 27.4372 2.36022 27.4372C0.798417 27.4372 0.374671 26.9771 0.33835 25.4153C0.277815 22.7276 0.459421 20.0761 1.60959 17.6063C2.10597 16.5288 2.68711 15.4876 3.353 14.5069C4.58791 12.6666 5.90758 10.8748 7.16671 9.05876C7.39674 8.73187 7.62677 8.57448 8.05052 8.58659C11.3557 8.6108 14.6731 8.59869 17.9783 8.58659C18.3415 8.58659 18.5594 8.68344 18.7773 8.98612C20.0607 10.8264 21.3561 12.6424 22.6516 14.4706C24.6613 17.3036 25.6662 20.4636 25.6662 23.9383C25.6662 24.5073 25.6662 25.0642 25.6662 25.6333C25.6541 26.9045 25.1335 27.4372 23.8623 27.4372C20.2423 27.4493 16.6223 27.4372 13.0144 27.4372Z" fill="#55140F"/>
<path d="M13.0367 48.793C16.6082 48.793 20.1798 48.793 23.7514 48.793C25.1558 48.793 25.6643 49.2894 25.6643 50.6696C25.6643 52.9094 25.6764 55.1491 25.6643 57.3889C25.6522 60.222 23.8725 61.9896 21.0515 62.0017C15.6881 62.0017 10.3247 62.0017 4.96131 62.0017C2.16459 62.0017 0.37275 60.2341 0.360643 57.4495C0.348536 55.1734 0.348536 52.8972 0.360643 50.609C0.348536 49.3257 0.869137 48.793 2.14037 48.793C5.77248 48.793 9.40458 48.793 13.0367 48.793Z" fill="#55140F"/>
<path d="M12.9878 39.4688C16.1114 39.4688 19.2351 39.4446 22.3587 39.481C23.7873 39.4931 24.8285 40.2074 25.3733 41.527C25.906 42.8104 25.676 44.0211 24.7316 45.0623C24.09 45.7766 23.2546 46.1156 22.3102 46.1156C16.0993 46.1277 9.88844 46.1398 3.67755 46.1156C1.76464 46.1035 0.323906 44.6022 0.336013 42.762C0.360227 40.9096 1.80096 39.481 3.72598 39.481C6.81326 39.4567 9.90055 39.4688 12.9878 39.4688Z" fill="#55140F"/>
<path d="M13.0121 30.1343C16.1358 30.1343 19.2594 30.1222 22.383 30.1343C23.8479 30.1464 25.0586 31.0907 25.4824 32.483C25.894 33.8269 25.446 35.3524 24.2232 36.103C23.6179 36.4784 22.843 36.7326 22.1408 36.7447C16.0389 36.7931 9.92486 36.781 3.81082 36.7689C1.92213 36.7689 0.541928 35.5461 0.348215 33.8027C0.16661 32.1198 1.23203 30.5944 2.90279 30.219C3.2539 30.1343 3.61711 30.1343 3.98032 30.1343C7.00707 30.1343 10.0096 30.1343 13.0121 30.1343Z" fill="#55140F"/>
<path d="M17.8342 5.86128C14.5896 5.86128 11.4175 5.86128 8.18495 5.86128C8.18495 4.26315 8.14863 2.68924 8.19706 1.12744C8.22127 0.485765 8.76609 0.0256987 9.43197 0.0256987C11.8171 0.0135917 14.19 0.0014847 16.5751 0.0256987C17.3136 0.0256987 17.8221 0.558407 17.8342 1.30904C17.8463 2.7982 17.8342 4.28737 17.8342 5.86128Z" fill="#55140F"/>
</svg>
