<svg width="62" height="62" viewBox="0 0 62 62" fill="none" xmlns="http://www.w3.org/2000/svg">
<path d="M61.9631 35.3329C41.3114 35.3329 20.7043 35.3329 0.0078125 35.3329C0.0078125 35.0202 0.0078125 34.7671 0.0078125 34.499C0.0078125 24.0764 0.0078125 13.6537 0.0078125 3.23103C0.0078125 1.08694 1.09475 0 3.19417 0C21.7316 0 40.2691 0 58.7917 0C60.8762 0 61.978 1.08694 61.978 3.15658C61.978 13.6239 61.978 24.0913 61.978 34.5735C61.9929 34.8117 61.978 35.05 61.9631 35.3329ZM39.6437 18.4332C39.6437 22.4534 39.6437 26.4587 39.6437 30.4789C39.6437 31.5807 39.8075 31.7445 40.8796 31.7445C44.0213 31.7445 47.1778 31.7445 50.3195 31.7445C51.3916 31.7445 51.5554 31.5658 51.5554 30.4789C51.5554 22.4534 51.5554 14.4131 51.5554 6.38761C51.5554 5.33045 51.3618 5.15178 50.2898 5.15178C47.163 5.15178 44.0361 5.15178 40.9242 5.15178C39.8373 5.15178 39.6586 5.33045 39.6586 6.4025C39.6437 10.4078 39.6437 14.428 39.6437 18.4332ZM36.9636 22.6023C36.9636 19.952 36.9636 17.3016 36.9636 14.6513C36.9636 13.7133 36.7552 13.4899 35.8469 13.4899C32.6308 13.4899 29.3997 13.4899 26.1836 13.4899C25.2753 13.4899 25.0669 13.7133 25.0669 14.6513C25.0669 19.952 25.0669 25.2526 25.0669 30.5682C25.0669 31.5658 25.2605 31.7594 26.2283 31.7594C29.4295 31.7594 32.6159 31.7594 35.8171 31.7594C36.785 31.7594 36.9785 31.5658 36.9785 30.5682C36.9636 27.9179 36.9636 25.2526 36.9636 22.6023ZM16.4161 31.7594C18.0241 31.7594 19.6322 31.7594 21.2403 31.7594C22.1337 31.7594 22.3421 31.5509 22.357 30.6724C22.357 28.439 22.357 26.2205 22.357 23.987C22.357 23.1086 22.1337 22.8703 21.2552 22.8703C18.0093 22.8554 14.7633 22.8554 11.5174 22.8703C10.6836 22.8703 10.4454 23.1085 10.4454 23.9275C10.4305 26.1758 10.4305 28.439 10.4454 30.6873C10.4454 31.5211 10.6687 31.7445 11.5025 31.7594C13.1553 31.7594 14.7931 31.7594 16.4161 31.7594Z" fill="#55140F"/>
<path d="M0.0526088 36.9688C20.7044 36.9688 41.2966 36.9688 61.9484 36.9688C61.9484 38.3088 62.0377 39.634 61.9186 40.9294C61.7995 42.2099 60.653 43.133 59.3576 43.2223C59.164 43.2372 58.9556 43.2372 58.762 43.2372C40.2543 43.2372 21.7467 43.2372 3.23897 43.2372C2.42004 43.2372 1.60112 43.1777 1.03532 42.5523C0.618411 42.0907 0.156836 41.5101 0.0972774 40.9294C-0.0367283 39.634 0.0526088 38.3088 0.0526088 36.9688Z" fill="#55140F"/>
<path d="M36.2656 44.8162C38.2906 44.8162 40.1965 44.8013 42.0874 44.8311C42.2512 44.8311 42.5043 45.0842 42.5788 45.2629C44.2464 49.566 45.914 53.8542 47.5221 58.1721C48.0879 59.676 47.2988 61.2989 45.8396 61.8201C44.3209 62.371 42.7426 61.6563 42.1321 60.1078C40.658 56.3258 39.1989 52.529 37.7546 48.7322C37.2781 47.4666 36.7868 46.2009 36.2656 44.8162Z" fill="#55140F"/>
<path d="M25.735 44.8159C25.1394 46.3941 24.5885 47.8235 24.0375 49.2529C22.6677 52.8115 21.2979 56.3701 19.928 59.9287C19.2729 61.6112 17.6946 62.3855 16.1163 61.7899C14.6125 61.2241 13.9276 59.5714 14.5678 57.9038C16.161 53.7347 17.7691 49.5805 19.3473 45.4114C19.526 44.935 19.7494 44.7712 20.2556 44.7861C22.0424 44.8307 23.8142 44.8159 25.735 44.8159Z" fill="#55140F"/>
<path d="M38.3664 54.6585C33.3933 54.6585 28.5691 54.6585 23.6406 54.6585C24.0724 53.512 24.4893 52.44 24.9062 51.3531C24.9509 51.2339 24.9956 51.1148 25.0402 51.0106C25.3083 50.3555 25.4125 49.4323 25.9038 49.1047C26.3952 48.7623 27.2886 48.9856 28.0033 48.9856C30.5345 48.9856 33.0657 48.9707 35.582 49.0005C35.8203 49.0005 36.2074 49.1494 36.2818 49.3281C37.0114 51.0553 37.6666 52.8271 38.3664 54.6585Z" fill="#55140F"/>
<path d="M49.9589 30.1978C47.0406 30.1978 44.152 30.1978 41.2188 30.1978C41.2188 22.3808 41.2188 14.6085 41.2188 6.76172C44.1371 6.76172 47.0108 6.76172 49.9589 6.76172C49.9589 14.5638 49.9589 22.3511 49.9589 30.1978Z" fill="#55140F"/>
<path d="M35.373 30.1956C32.4546 30.1956 29.566 30.1956 26.6328 30.1956C26.6328 25.163 26.6328 20.1601 26.6328 15.0977C29.5363 15.0977 32.4248 15.0977 35.373 15.0977C35.373 20.1154 35.373 25.1332 35.373 30.1956Z" fill="#55140F"/>
<path d="M20.7948 24.4648C20.7948 26.3856 20.7948 28.2617 20.7948 30.1824C17.8765 30.1824 15.0028 30.1824 12.0547 30.1824C12.0547 28.2915 12.0547 26.4005 12.0547 24.4648C14.973 24.4648 17.8616 24.4648 20.7948 24.4648Z" fill="#55140F"/>
</svg>
