<svg width="58" height="62" viewBox="0 0 58 62" fill="none" xmlns="http://www.w3.org/2000/svg">
<path d="M29.0572 0C33.4442 0 37.8191 0 42.2062 0C44.7026 0 46.3629 1.15129 47.2355 3.49023C48.4231 6.64113 50.5924 8.8104 53.7312 10.0102C55.9853 10.8706 57.1851 12.543 57.1608 14.9547C57.1487 18.0813 57.1972 21.2201 57.0396 24.3346C56.7245 30.697 54.9794 36.6959 51.9497 42.2826C47.2718 50.8991 40.461 57.2615 31.5416 61.3819C29.8086 62.1818 28.1604 62.1939 26.4274 61.3698C14.1632 55.577 6.1526 46.1364 2.37152 33.0966C1.28083 29.3397 0.832431 25.4738 0.820312 21.5594C0.820312 19.3417 0.820312 17.1118 0.820312 14.8941C0.820312 12.5794 1.9716 10.8827 4.15299 10.0586C7.41296 8.82252 9.61859 6.58053 10.8305 3.32056C11.6182 1.19977 13.3512 0 15.6174 0C20.1014 0 24.5854 0 29.0572 0ZM21.4102 23.5227C21.1921 23.559 21.0103 23.5833 20.8406 23.6075C18.6593 23.8378 16.9626 25.5708 16.9384 27.7521C16.8899 31.4726 16.8657 35.181 16.9505 38.9015C17.0474 43.0098 20.6225 46.4636 24.7308 46.5364C27.603 46.5848 30.463 46.5848 33.3352 46.5364C37.3829 46.4636 40.9458 43.0098 41.0549 38.9621C41.1518 35.2295 41.1155 31.4969 41.067 27.7521C41.0428 25.801 39.7097 24.2134 37.8191 23.7166C37.4313 23.6196 37.0314 23.5711 36.5951 23.4984C36.5951 23.2682 36.5951 23.05 36.5951 22.8319C36.5951 21.2564 36.6194 19.681 36.583 18.1056C36.4618 12.8823 30.9478 9.29515 26.1487 11.3675C23.0947 12.6884 21.4951 15.0637 21.4223 18.4085C21.386 20.1052 21.4102 21.8018 21.4102 23.5227Z" fill="#55140F"/>
<path d="M29.0112 27.1953C31.435 27.1953 33.8588 27.1953 36.2825 27.1953C37.2884 27.1953 37.458 27.365 37.458 28.3466C37.458 31.5945 37.4702 34.8544 37.458 38.1023C37.4459 41.0472 35.5796 42.9135 32.659 42.9135C30.1989 42.9135 27.7266 42.9135 25.2665 42.9135C22.4549 42.9013 20.5523 41.0229 20.5523 38.1992C20.5401 34.8908 20.5523 31.5702 20.5523 28.2618C20.5523 27.4013 20.7583 27.1953 21.6308 27.1953C24.091 27.1953 26.5511 27.1953 29.0112 27.1953ZM30.8169 35.0968C30.8169 34.5151 30.8412 33.9213 30.8169 33.3396C30.7684 32.2852 29.9807 31.5217 28.9991 31.5339C28.0175 31.546 27.2419 32.3095 27.2055 33.3759C27.1813 34.503 27.1813 35.6421 27.2055 36.7692C27.2297 37.8357 27.9932 38.5991 28.987 38.5991C29.9807 38.6113 30.7563 37.8599 30.8048 36.7934C30.8412 36.236 30.8169 35.6664 30.8169 35.0968Z" fill="#55140F"/>
<path d="M32.9 23.5474C30.2823 23.5474 27.701 23.5474 25.0955 23.5474C25.0712 23.4262 25.047 23.3292 25.047 23.2323C25.047 21.572 25.0227 19.9238 25.0591 18.2635C25.0955 16.1185 26.8769 14.4219 29.022 14.4219C31.1428 14.434 32.9 16.1185 32.9485 18.2272C32.9848 19.9238 32.9606 21.6205 32.9606 23.3171C32.9485 23.3777 32.9242 23.4383 32.9 23.5474Z" fill="#55140F"/>
</svg>
