<svg width="112" height="30" viewBox="0 0 112 30" fill="none" xmlns="http://www.w3.org/2000/svg">
<g clip-path="url(#clip0_4769_111158)">
<path d="M98.0195 26.0117L100.181 29.6611H98.0195V26.0117Z" fill="#FABA5A"/>
<path d="M111.176 9.06641V21.0302H104.147V23.6555H107.16L103.852 29.2223V29.6648H103.688L100.725 25.1473L103.418 21.0302H100.076L98.0198 24.4141V17.916H95.0489V29.6648H93.4644V26.9004H90.582V9.06641H111.176Z" fill="#FABA5A"/>
<path d="M108.012 27.0192L111.176 21.6758V27.0192H108.012Z" fill="#FABA5A"/>
<path d="M23.4361 25.6589V13.9648H19.0703V29.6033H28.9987V25.6589H23.4361V25.6589Z" fill="white"/>
<path d="M38.2896 13.5703C33.2623 13.5703 29.6719 17.009 29.6719 21.7878C29.6719 26.5665 33.2623 30.001 38.2896 30.001C43.3002 30.001 46.8738 26.5749 46.8738 21.7878C46.8738 16.9921 43.3002 13.5703 38.2896 13.5703ZM38.2896 25.9892C35.9087 25.9892 34.1598 24.2193 34.1598 21.7878C34.1598 19.352 35.9087 17.5779 38.2896 17.5779C40.6664 17.5779 42.3899 19.3394 42.3899 21.7878C42.3899 24.2361 40.6664 25.9892 38.2896 25.9892Z" fill="white"/>
<path d="M58.8548 13.9648V22.1696L52.8497 13.9648H49.0781V29.6033H53.2585V21.1161L59.4658 29.6033H63.0309V13.9648H58.8548Z" fill="white"/>
<path d="M66.0586 13.9648V29.6033H70.4244V13.9648H66.0586Z" fill="white"/>
<path d="M83.2298 13.9648V22.1696L77.2247 13.9648H73.4531V29.6033H77.6293V21.1161L83.8409 29.6033H87.406V13.9648H83.2298Z" fill="white"/>
<path d="M2.58677 5.3609C1.49529 5.1797 0.530248 5.01537 0.530248 4.01242C0.530248 3.1696 1.31411 2.6049 2.51095 2.6049C3.72033 2.6049 4.46201 3.16538 4.52951 4.10933H4.90873C4.84556 2.95468 3.93947 2.23828 2.51516 2.23828C1.10341 2.23828 0.142584 2.9589 0.142584 4.02082C0.142584 5.33561 1.33942 5.54212 2.49829 5.7444C3.60233 5.92982 4.69381 6.13208 4.69381 7.29517C4.69381 8.22227 3.84677 8.82067 2.5699 8.82067C1.30146 8.82067 0.505041 8.24334 0.399691 7.24461H0.0078125C0.113162 8.45827 1.0529 9.19573 2.56146 9.19573C4.07436 9.19573 5.08569 8.43298 5.08569 7.28255C5.08569 5.79496 3.7583 5.55476 2.58677 5.3609Z" fill="white"/>
<path d="M9.3554 8.68752C8.31032 8.68752 7.71185 8.07225 7.71185 7.01454V2.72881H10.1434V2.37906H7.71185V0.398438H7.31575V2.37906H5.77344V2.72881H7.31575V7.03139C7.31575 8.29983 8.07431 9.0668 9.32166 9.0668H10.1982V8.68752H9.3554Z" fill="white"/>
<path d="M16.7192 2.36719V6.21042C16.7192 7.80757 15.7921 8.80631 14.2961 8.80631C12.8001 8.80631 11.8688 7.81177 11.8688 6.21042V2.36719H11.4727V6.25677C11.4727 8.04356 12.5683 9.19399 14.2961 9.19399C16.0238 9.19399 17.1153 8.04356 17.1153 6.25677V2.36719H16.7192Z" fill="white"/>
<path d="M25.2832 0V4.05394C24.7311 2.95407 23.627 2.23767 22.2532 2.23767C20.2937 2.23767 18.8398 3.73366 18.8398 5.7185C18.8398 7.6949 20.2937 9.19511 22.2532 9.19511C23.6354 9.19511 24.7438 8.47028 25.2916 7.35779L25.3464 9.06448H25.6793V0H25.2832ZM22.2743 8.80743C20.5424 8.80743 19.2402 7.47576 19.2402 5.71851C19.2402 3.94859 20.5424 2.62536 22.2743 2.62536C24.0231 2.62536 25.3 3.93596 25.3 5.71851C25.3 7.49683 24.0231 8.80743 22.2743 8.80743Z" fill="white"/>
<path d="M28.1201 2.37008V9.06625H28.5162V2.37008H28.1201ZM28.0273 0.191406V0.88252H28.6089V0.191406H28.0273Z" fill="white"/>
<path d="M33.8522 2.23828C31.8632 2.23828 30.3672 3.71321 30.3672 5.71911C30.3672 7.70814 31.8632 9.19572 33.8522 9.19572C35.8497 9.19572 37.3373 7.70815 37.3373 5.71911C37.3373 3.72586 35.8497 2.23828 33.8522 2.23828ZM33.8522 8.80804C32.0908 8.80804 30.7675 7.48903 30.7675 5.71912C30.7675 3.93657 32.0823 2.62597 33.8522 2.62597C35.6221 2.62597 36.9328 3.94498 36.9328 5.71912C36.9328 7.48903 35.6221 8.80804 33.8522 8.80804Z" fill="white"/>
<path d="M8.65651 23.5357C9.62316 23.5357 10.4068 22.7521 10.4068 21.7854C10.4068 20.8188 9.62316 20.0352 8.65651 20.0352C7.68987 20.0352 6.90625 20.8188 6.90625 21.7854C6.90625 22.7521 7.68987 23.5357 8.65651 23.5357Z" fill="#FABA5A"/>
<path d="M12.4897 23.5366V25.7827H8.49479C6.29505 25.7827 4.49564 23.9917 4.49564 21.7878C4.49564 19.5796 6.29506 17.7886 8.49479 17.7886C10.0751 17.7886 11.4404 18.7073 12.0894 20.0347H16.5226C15.7219 16.339 12.4308 13.5703 8.49479 13.5703C3.96044 13.5703 0.277344 17.245 0.277344 21.7878C0.277337 26.3221 3.96044 30.001 8.49479 30.001H16.7122V23.5366H12.4897Z" fill="white"/>
</g>
<defs>
<clipPath id="clip0_4769_111158">
<rect width="111.183" height="30" fill="white"/>
</clipPath>
</defs>
</svg>
