<svg width="226" height="49" viewBox="0 0 226 49" fill="none" xmlns="http://www.w3.org/2000/svg">
<g clip-path="url(#clip0_4829_109035)">
<path d="M0.645161 0H31.0968V4.42497L3.67742 18.1554H31.0323V20.7583H0V16.4635L27.5484 2.60292H0.645161V0ZM71.4194 11.0624C71.4194 12.2337 71.2903 13.2749 71.0968 14.1859C70.8387 15.0969 70.3871 15.9429 69.6774 16.5936C68.9677 17.2444 67.9355 17.7649 66.5161 18.1554C65.1613 18.5458 63.2903 18.676 61.0323 18.676C58.7097 18.676 56.9032 18.4807 55.5484 18.0903C54.1936 17.6999 53.1613 17.1793 52.4516 16.5286C51.7419 15.8778 51.2258 15.0319 51.0323 14.0558C50.7742 13.0797 50.7097 12.1036 50.7097 10.9323V0H46.5161V12.3639C46.6452 15.4223 47.9355 17.6999 50.3871 19.1315C52.8387 20.5631 56.3871 21.2789 61.0968 21.2789C65.8065 21.2789 69.3548 20.5631 71.7419 19.1315C74.129 17.6999 75.4194 15.4223 75.6129 12.3639V0H71.4194V11.0624ZM118.258 6.44223C117.935 7.22311 117.548 8.00398 117.032 8.78486C116.516 9.56574 115.935 10.2165 115.226 10.8672C114.516 11.4529 113.613 11.9734 112.645 12.2988C111.613 12.6892 110.452 12.8194 109.161 12.8194C107.806 12.8194 106.645 12.6242 105.677 12.2337C104.71 11.8433 103.806 11.3878 103.097 10.8021C102.387 10.2165 101.742 9.50066 101.226 8.71979C100.71 7.93891 100.323 7.15803 100 6.31208C99.6774 5.53121 99.4839 4.68526 99.2903 3.96946C99.1613 3.18858 99.0323 2.53785 98.9677 1.88712C98.9032 1.30146 98.8387 0.780876 98.8387 0.455511V0H92.0645V20.6932H96.2581V5.66135C96.5807 7.02789 97.0323 8.26428 97.6774 9.43559C98.3226 10.6069 99.0968 11.6481 100.129 12.5591C101.161 13.4701 102.387 14.1208 103.871 14.6414C105.355 15.162 107.097 15.4223 109.097 15.4223C111.097 15.4223 112.839 15.162 114.258 14.6414C115.742 14.1208 116.968 13.4701 118 12.6242C119.032 11.7782 119.871 10.7371 120.516 9.63081C121.161 8.45949 121.613 7.22311 122 5.92165V20.6932H126.194V0H119.419C119.355 2.4077 118.968 4.55511 118.258 6.44223ZM177.355 20.6932V0H170.581C170.516 2.4077 170.129 4.55511 169.419 6.44223C169.097 7.22311 168.71 8.00398 168.194 8.78486C167.677 9.56574 167.097 10.2165 166.387 10.8672C165.677 11.4529 164.774 11.9734 163.806 12.2988C162.774 12.6892 161.613 12.8194 160.323 12.8194C158.968 12.8194 157.806 12.6242 156.839 12.2337C155.871 11.8433 154.968 11.3878 154.258 10.8021C153.548 10.2165 152.903 9.50066 152.387 8.71979C151.871 7.93891 151.484 7.15803 151.161 6.31208C150.839 5.53121 150.645 4.68526 150.452 3.96946C150.323 3.25365 150.194 2.53785 150.129 1.95219C150.065 1.36653 150 0.845949 150 0.520584V0H143.226V20.6932H147.419V5.66135C147.742 7.02789 148.194 8.26428 148.839 9.43559C149.484 10.6069 150.258 11.6481 151.29 12.5591C152.323 13.4701 153.548 14.1208 155.032 14.6414C156.516 15.162 158.258 15.4223 160.258 15.4223C162.258 15.4223 164 15.162 165.419 14.6414C166.903 14.1208 168.129 13.4701 169.161 12.6242C170.194 11.7782 171.032 10.7371 171.677 9.63081C172.323 8.45949 172.774 7.22311 173.161 5.92165V20.6932H177.355ZM211.355 0H204.323L189.677 20.6932H194.323L198.774 14.4462H216.968L221.419 20.6932H226.065L211.355 0ZM200.516 11.8433L207.806 1.62683L215.032 11.8433H200.516Z" fill="white"/>
<path d="M48.4512 44.4465H44.1287V41.4531H42.3867V48.9365H44.1287V46.0733H48.4512V48.9365H50.2577V41.4531H48.4512V44.4465Z" fill="white"/>
<path d="M64.5146 43.5991C64.2566 43.1436 63.934 42.6881 63.5469 42.3627C63.1598 42.0374 62.6436 41.712 62.063 41.5168C61.4824 41.3216 60.8372 41.1914 60.192 41.1914C59.4824 41.1914 58.9017 41.3216 58.3211 41.5168C57.7404 41.712 57.2888 41.9723 56.8372 42.3627C56.3856 42.6881 56.063 43.1436 55.8695 43.5991C55.6114 44.0546 55.5469 44.5752 55.5469 45.0958C55.5469 45.6164 55.6759 46.137 55.8695 46.5925C56.1275 47.048 56.4501 47.5035 56.8372 47.8289C57.2243 48.1542 57.7404 48.4796 58.3211 48.6748C58.9017 48.87 59.5469 49.0002 60.2566 49.0002C60.9017 49.0002 61.5469 48.87 62.1275 48.6748C62.7082 48.4796 63.1598 48.2193 63.6114 47.8289C63.9985 47.5035 64.3211 47.048 64.5791 46.5925C64.8372 46.137 64.9017 45.6164 64.9017 45.0958C64.8372 44.5752 64.7082 44.1197 64.5146 43.5991ZM62.7727 46.0068C62.6437 46.2671 62.4501 46.5274 62.192 46.7226C61.934 46.9178 61.6114 47.048 61.2888 47.1781C60.9662 47.3083 60.5791 47.3733 60.1275 47.3733C59.7404 47.3733 59.3533 47.3083 58.9662 47.1781C58.6437 47.048 58.3211 46.9178 58.063 46.7226C57.8049 46.5274 57.6114 46.2671 57.4824 46.0068C57.3533 45.7465 57.2888 45.4862 57.2888 45.1609C57.2888 44.8355 57.3533 44.5752 57.4824 44.3149C57.6114 44.0546 57.8049 43.7943 58.063 43.5991C58.3211 43.4039 58.6437 43.2737 58.9662 43.1436C59.2888 43.0135 59.6759 42.9484 60.1275 42.9484C60.5146 42.9484 60.9017 43.0135 61.2888 43.1436C61.6114 43.2737 61.934 43.4039 62.192 43.5991C62.4501 43.7943 62.6437 44.0546 62.7727 44.3149C62.9017 44.5752 62.9662 44.8355 62.9662 45.1609C62.9662 45.4862 62.9017 45.7465 62.7727 46.0068Z" fill="white"/>
<path d="M68.9688 43.0149H71.9365V48.9365H73.7429V43.0149H76.7107V41.4531H68.9688V43.0149Z" fill="white"/>
<path d="M83.4177 45.8781H87.8693V44.3814H83.4177V43.0149H88.3209V41.4531H81.6758V48.9365H88.45V47.3748H83.4177V45.8781Z" fill="white"/>
<path d="M95.6775 41.4531H93.8711V48.9365H100.452V47.3097H95.6775V41.4531Z" fill="white"/>
<path d="M116.902 41.3867H115.224L111.547 48.8701H113.353L113.998 47.5687H118.063L118.708 48.8701H120.579L116.902 41.3867ZM114.644 46.2021L115.482 44.4452C115.547 44.315 115.611 44.1849 115.676 43.9896C115.74 43.8595 115.805 43.7293 115.869 43.5992C115.934 43.5341 115.934 43.404 115.998 43.3389C115.998 43.404 116.063 43.5341 116.063 43.5992C116.128 43.7293 116.192 43.8595 116.257 43.9896C116.321 44.1198 116.386 44.2499 116.45 44.4452L117.289 46.2021H114.644Z" fill="white"/>
<path d="M126.967 41.3867H125.16V48.8701H131.741V47.3084H126.967V41.3867Z" fill="white"/>
<path d="M141.42 44.9657L138.582 41.3867H136.969V48.8701H138.711V46.4624C138.711 45.8768 138.711 45.2911 138.646 44.7705C138.646 44.5753 138.646 44.315 138.582 44.1198L141.033 47.0481H141.743L144.195 44.1198C144.195 44.315 144.13 44.5753 144.13 44.7705C144.13 45.2911 144.066 45.8768 144.066 46.4624V48.8701H145.807V41.3867H144.195L141.42 44.9657Z" fill="white"/>
<path d="M155.87 41.3867H154.193L150.516 48.8701H152.322L152.967 47.5687H157.032L157.677 48.8701H159.548L155.87 41.3867ZM153.677 46.2021L154.516 44.4452C154.58 44.315 154.645 44.1849 154.709 43.9896C154.774 43.8595 154.838 43.7293 154.903 43.5992C154.967 43.5341 154.967 43.404 155.032 43.3389C155.032 43.404 155.096 43.5341 155.096 43.5992C155.161 43.7293 155.225 43.8595 155.29 43.9896C155.354 44.1198 155.419 44.2499 155.483 44.4452L156.322 46.2021H153.677Z" fill="white"/>
<path d="M162.84 43.0135H165.808V48.8701H167.614V43.0135H170.582V41.3867H162.84V43.0135Z" fill="white"/>
<path d="M181.548 41.3867L179.225 44.5753L176.774 41.3867H174.516L178.258 46.072V48.8701H180.064V46.0069L183.677 41.3867H181.548Z" fill="white"/>
</g>
<defs>
<clipPath id="clip0_4829_109035">
<rect width="226" height="49" fill="white"/>
</clipPath>
</defs>
</svg>
